# xmcd
#
# Track frame offsets:
#	150
#	13568
#	32990
#	51770
#	71818
#	82382
#	100219
#	120638
#	139114
#	160463
#	179675
#	192750
#	207540
#	219001
#	236805
#	246783
#	261525
#	272853
#	293209
#	313710
#
# Disc length: 4393 seconds
#
# Revision: 1
# Processed by: cddbd v1.5.2PL0 Copyright (c) Steve Scherf et al.
# Submitted via: audiograbber 1.83.01
#
DISCID=3f112714
DTITLE=GeeGee and Soluna - the best and the rest
DYEAR=2011
DGENRE=
TTITLE0=Save Tonight
TTITLE1=And The Beat Goes On
TTITLE2=Twist and Shout - La Bamba
TTITLE3=Listen To The Falling Rain
TTITLE4=Do You Understand Me Now
TTITLE5=Knocking On Heavens Door
TTITLE6=Boulevard Of Broken Dreams
TTITLE7=Wagon Wheel
TTITLE8=The Night They Drove Old Dixie Down
TTITLE9=Staying Alive
TTITLE10=There´s An End
TTITLE11=Walk On The Wild Side
TTITLE12=Big Road Blues
TTITLE13=Me and Bobby McGee
TTITLE14=Subterranean Homesick Blues
TTITLE15=Got My Mojo Working
TTITLE16=Hit The Road Jack
TTITLE17=Sultans Of Swing
TTITLE18=Riders On The Storm
TTITLE19=Mad World
EXTD=
EXTT0=
EXTT1=
EXTT2=
EXTT3=
EXTT4=
EXTT5=
EXTT6=
EXTT7=
EXTT8=
EXTT9=
EXTT10=
EXTT11=
EXTT12=
EXTT13=
EXTT14=
EXTT15=
EXTT16=
EXTT17=
EXTT18=
EXTT19=
PLAYORDER=
